<svg xmlns="http://www.w3.org/2000/svg" width="1920" height="1080" viewBox="0 0 1920 1080" fill="none">
  <defs>
    <linearGradient id="bg" x1="0" y1="0" x2="1920" y2="1080" gradientUnits="userSpaceOnUse">
      <stop stop-color="#051329"/>
      <stop offset="0.45" stop-color="#0C1D39"/>
      <stop offset="1" stop-color="#081127"/>
    </linearGradient>
    <radialGradient id="glowA" cx="0" cy="0" r="1" gradientUnits="userSpaceOnUse" gradientTransform="translate(380 220) rotate(42) scale(520 420)">
      <stop stop-color="#5EE5FF" stop-opacity="0.45"/>
      <stop offset="1" stop-color="#5EE5FF" stop-opacity="0"/>
    </radialGradient>
    <radialGradient id="glowB" cx="0" cy="0" r="1" gradientUnits="userSpaceOnUse" gradientTransform="translate(1500 160) rotate(156) scale(620 410)">
      <stop stop-color="#89A0FF" stop-opacity="0.36"/>
      <stop offset="1" stop-color="#89A0FF" stop-opacity="0"/>
    </radialGradient>
    <pattern id="microGrid" width="32" height="32" patternUnits="userSpaceOnUse">
      <path d="M32 0H0V32" stroke="#70C9FF" stroke-opacity="0.1" stroke-width="1"/>
    </pattern>
    <pattern id="macroGrid" width="120" height="120" patternUnits="userSpaceOnUse">
      <path d="M120 0H0V120" stroke="#9FD9FF" stroke-opacity="0.16" stroke-width="1.2"/>
    </pattern>
  </defs>
  <rect width="1920" height="1080" fill="url(#bg)"/>
  <rect width="1920" height="1080" fill="url(#microGrid)"/>
  <rect width="1920" height="1080" fill="url(#macroGrid)"/>
  <rect width="1920" height="1080" fill="url(#glowA)"/>
  <rect width="1920" height="1080" fill="url(#glowB)"/>
  <g opacity="0.3" stroke="#9FE7FF" stroke-width="1">
    <path d="M0 830C240 702 380 806 620 678C860 550 1004 652 1242 522C1464 401 1710 519 1920 396"/>
    <path d="M0 932C210 812 372 920 611 790C830 671 1002 780 1220 652C1488 496 1690 628 1920 502"/>
    <path d="M0 736C262 618 402 714 642 596C880 478 1012 576 1270 444C1496 328 1714 438 1920 318"/>
  </g>
  <g fill="#D6F5FF" fill-opacity="0.58">
    <circle cx="206" cy="246" r="2"/>
    <circle cx="528" cy="168" r="1.5"/>
    <circle cx="768" cy="242" r="1.7"/>
    <circle cx="932" cy="132" r="1.4"/>
    <circle cx="1160" cy="208" r="1.8"/>
    <circle cx="1368" cy="132" r="1.6"/>
    <circle cx="1616" cy="212" r="2"/>
    <circle cx="1760" cy="154" r="1.5"/>
  </g>
</svg>
